<?xml version="1.0" encoding="utf-8"?>
<!-- Generator: Adobe Illustrator 24.1.2, SVG Export Plug-In . SVG Version: 6.00 Build 0)  -->
<svg version="1.1"
	 id="Layer_1" xmlns:cc="http://creativecommons.org/ns#" xmlns:dc="http://purl.org/dc/elements/1.1/" xmlns:inkscape="http://www.inkscape.org/namespaces/inkscape" xmlns:rdf="http://www.w3.org/1999/02/22-rdf-syntax-ns#" xmlns:sodipodi="http://sodipodi.sourceforge.net/DTD/sodipodi-0.dtd" xmlns:svg="http://www.w3.org/2000/svg"
	 xmlns="http://www.w3.org/2000/svg" xmlns:xlink="http://www.w3.org/1999/xlink" x="0px" y="0px" viewBox="0 0 100 125"
	 style="enable-background:new 0 0 100 125;" xml:space="preserve">
<g transform="translate(0,-952.36216)">
	<path d="M50,957.4c-17.7,0-32,14.3-32,32c0,17.7,33,58,33,58s31-40.3,31-58C82,971.7,67.7,957.4,50,957.4z M50,963.9
		c14.1,0,25.5,11.4,25.5,25.5c0,14.1-11.4,25.5-25.5,25.5c-14.1,0-25.5-11.4-25.5-25.5v0C24.5,975.3,35.9,963.9,50,963.9
		C50,963.9,50,963.9,50,963.9L50,963.9z"/>
	<path d="M41,981.2c-1.9,0-3.7,0.7-5.2,1.9c0,0,0,0,0,0c-0.1,0-0.3,0-0.4,0.1c-0.6,0.3-1.3,0.3-1.9,0c-0.4-0.2-0.9,0-1.1,0.4
		c-0.2,0.4,0,0.9,0.4,1.1c0,0,0,0,0,0c0.4,0.2,0.8,0.3,1.2,0.3c-0.8,1.3-1.2,2.8-1.2,4.3c0,4.5,3.7,8.2,8.2,8.2
		c4.5,0,8.2-3.7,8.2-8.2c0,0,0,0,0,0c0-1.1-0.2-2.2-0.7-3.3c1.1,0.2,2.1,0.2,3.2,0c-0.5,1-0.7,2.2-0.7,3.3c0,4.5,3.7,8.2,8.2,8.2
		c0,0,0,0,0,0c4.5,0,8.2-3.7,8.2-8.2c0-1.5-0.4-3-1.2-4.3c0.4-0.1,0.7-0.2,1.1-0.3c0.4-0.2,0.6-0.7,0.4-1.1
		c-0.1-0.3-0.4-0.5-0.8-0.5c-0.1,0-0.3,0-0.4,0.1c-0.6,0.3-1.3,0.3-1.9,0c0,0-0.1,0-0.1,0c-1.5-1.3-3.4-2-5.3-2
		c-2.2,0-4.3,0.9-5.9,2.5c-1.9,1-4.2,1-6.2,0.2C45.5,982.2,43.3,981.2,41,981.2L41,981.2z M64.1,989.5c0.5,0,0.9,0.4,0.8,0.9
		c0,0.1,0,0.2-0.1,0.3c-0.5,1.4-1.3,2.7-2.4,3.7c-0.3,0.3-0.9,0.3-1.2,0c-0.3-0.3-0.3-0.9,0-1.2c0,0,0,0,0,0c0.9-0.8,1.6-1.8,1.9-3
		C63.4,989.7,63.7,989.5,64.1,989.5z"/>
</g>
</svg>
