<?xml version="1.0" encoding="utf-8"?>
<!-- Generator: Adobe Illustrator 24.1.2, SVG Export Plug-In . SVG Version: 6.00 Build 0)  -->
<svg version="1.1"
	 id="Layer_1" xmlns:cc="http://creativecommons.org/ns#" xmlns:dc="http://purl.org/dc/elements/1.1/" xmlns:inkscape="http://www.inkscape.org/namespaces/inkscape" xmlns:rdf="http://www.w3.org/1999/02/22-rdf-syntax-ns#" xmlns:sodipodi="http://sodipodi.sourceforge.net/DTD/sodipodi-0.dtd" xmlns:svg="http://www.w3.org/2000/svg"
	 xmlns="http://www.w3.org/2000/svg" xmlns:xlink="http://www.w3.org/1999/xlink" x="0px" y="0px" viewBox="0 0 100 125"
	 style="enable-background:new 0 0 100 125;" xml:space="preserve">
<style type="text/css">
	.st0{fill-rule:evenodd;clip-rule:evenodd;}
</style>
<g transform="translate(0,-952.36216)">
	<path d="M50,957.4c-17.7,0-32,14.3-32,32c0,17.7,33,58,33,58s31-40.3,31-58C82,971.7,67.7,957.4,50,957.4z M50,963.9
		c14.1,0,25.5,11.4,25.5,25.5c0,14.1-11.4,25.5-25.5,25.5c-14.1,0-25.5-11.4-25.5-25.5C24.5,975.3,35.9,963.9,50,963.9z"/>
	<path class="st0" d="M37.8,990l5.9,9.8l-1.9,1.2l-5.9-9.8L37.8,990L37.8,990z"/>
	<path class="st0" d="M39.2,985.9l8.9,14.7l-1.9,1.2L37.2,987L39.2,985.9z"/>
	<path d="M36.4,994.2l3,4.9l-1.4,0.9l-2.9-1.6l-0.1-3.3L36.4,994.2z"/>
	<path class="st0" d="M56.3,978.9l5.9,9.8l1.9-1.2l-5.9-9.8L56.3,978.9z"/>
	<path class="st0" d="M52,978.1l8.9,14.7l1.9-1.2L53.9,977C53.9,977,52,978.1,52,978.1z"/>
	<path d="M60.6,979.6l3,4.9l1.4-0.9l-0.1-3.3l-2.9-1.6C62.1,978.8,60.6,979.6,60.6,979.6z"/>
	<path class="st0" d="M44.5,991.4l1.2,1.9l9.8-5.9l-1.2-1.9L44.5,991.4z"/>
</g>
</svg>
