<?xml version="1.0" encoding="utf-8"?>
<!-- Generator: Adobe Illustrator 24.1.2, SVG Export Plug-In . SVG Version: 6.00 Build 0)  -->
<svg version="1.1"
	 id="Layer_1" xmlns:cc="http://creativecommons.org/ns#" xmlns:dc="http://purl.org/dc/elements/1.1/" xmlns:inkscape="http://www.inkscape.org/namespaces/inkscape" xmlns:rdf="http://www.w3.org/1999/02/22-rdf-syntax-ns#" xmlns:sodipodi="http://sodipodi.sourceforge.net/DTD/sodipodi-0.dtd" xmlns:svg="http://www.w3.org/2000/svg"
	 xmlns="http://www.w3.org/2000/svg" xmlns:xlink="http://www.w3.org/1999/xlink" x="0px" y="0px" viewBox="0 0 100 125"
	 style="enable-background:new 0 0 100 125;" xml:space="preserve">
<g transform="translate(0,-952.36216)">
	<path d="M50,957.4c-17.7,0-32,14.3-32,32c0,17.7,33,58,33,58s31-40.3,31-58C82,971.7,67.7,957.4,50,957.4z M50,963.9
		c14.1,0,25.5,11.4,25.5,25.5c0,14.1-11.4,25.5-25.5,25.5c-14.1,0-25.5-11.4-25.5-25.5C24.5,975.3,35.9,963.9,50,963.9z"/>
	<path d="M50,979.3c-4.5,0-8.5,3.1-9.7,7.5c-1.2,4.4,0.6,9.2,4.5,11.6l1.4-2.2c-2.8-1.8-4.2-5.3-3.3-8.6c0.9-3.3,3.8-5.6,7.1-5.6
		c3.3,0,6.2,2.3,7.1,5.6c0.9,3.3-0.5,6.8-3.3,8.6l1.4,2.2c3.8-2.4,5.7-7.1,4.5-11.6C58.5,982.4,54.5,979.3,50,979.3z"/>
	<path d="M44.1,997.5v2.6h11.7v-2.6H44.1z"/>
	<path d="M43.5,996.1v4.1h2.6v-4.1H43.5z"/>
	<path d="M50,1007c-3,0-5.5-2.4-5.7-5.4l2.6-0.2c0.1,1.7,1.4,3,3.1,3c1.6,0,2.9-1.3,3-3l2.6,0.1C55.5,1004.6,53.1,1007,50,1007
		L50,1007z"/>
	<path d="M44.3,998.6v3H47v-3H44.3z"/>
	<path d="M53,998.6v3h2.6v-3H53z"/>
	<path d="M57.8,973.8l-2.9,3l1.9,1.8l2.9-3L57.8,973.8z"/>
	<path d="M42.2,973.8l-1.9,1.8l2.9,3l1.9-1.8L42.2,973.8z"/>
	<path d="M48.7,971.7v4.5h2.6v-4.5H48.7z"/>
	<path d="M53.8,996.1v4.1h2.6v-4.1H53.8z"/>
</g>
</svg>
