<?xml version="1.0" encoding="utf-8"?>
<!-- Generator: Adobe Illustrator 24.1.2, SVG Export Plug-In . SVG Version: 6.00 Build 0)  -->
<svg version="1.1"
	 id="Layer_1" xmlns:cc="http://creativecommons.org/ns#" xmlns:dc="http://purl.org/dc/elements/1.1/" xmlns:inkscape="http://www.inkscape.org/namespaces/inkscape" xmlns:rdf="http://www.w3.org/1999/02/22-rdf-syntax-ns#" xmlns:sodipodi="http://sodipodi.sourceforge.net/DTD/sodipodi-0.dtd" xmlns:svg="http://www.w3.org/2000/svg"
	 xmlns="http://www.w3.org/2000/svg" xmlns:xlink="http://www.w3.org/1999/xlink" x="0px" y="0px" viewBox="0 0 100 125"
	 style="enable-background:new 0 0 100 125;" xml:space="preserve">
<g transform="translate(0,-952.36216)">
	<path d="M50,957.4c-17.7,0-32,14.3-32,32c0,17.7,33,58,33,58s31-40.3,31-58C82,971.7,67.7,957.4,50,957.4L50,957.4z M50,963.9
		c14.1,0,25.5,11.4,25.5,25.5c0,14.1-11.4,25.5-25.5,25.5c-14.1,0-25.5-11.4-25.5-25.5C24.5,975.3,35.9,963.9,50,963.9z"/>
	<path d="M52.7,997.4c0,0.6,0,1.1,0,1.7h3.8v-1.7H52.7z"/>
	<path d="M36.8,979.7c0,0.6,0,1.1,0,1.7h3l3.6,14.1H59l4.2-12.3H44v1.7h16.8l-0.6,1.8H46.4v1.7h13.2l-0.6,1.8H48.6v1.7h9.8l-0.6,1.8
		h-13l-3.6-14.1L36.8,979.7z"/>
	<path d="M45.6,997.4c0,0.6,0,1.1,0,1.7h3.8v-1.7H45.6z"/>
</g>
</svg>
